<svg width="2734" height="313" viewBox="0 0 2734 313" fill="none" xmlns="http://www.w3.org/2000/svg">
<path d="M872.711 101.239C1529.57 -2.4151 2595.26 1.95162 3046 17.0917V303H-20V78.2894C190.445 157.847 662.826 126.738 872.711 101.239Z" fill="#0035B1" fill-opacity="0.88"/>
<path d="M1453.52 118.754C2110.59 35.0174 2606.11 136.566 3057 148.797V313H-10V0C469.254 241.482 1243.56 139.354 1453.52 118.754Z" fill="#A9BEE8"/>
<path d="M2042.48 159.419C2493.66 130.511 2725.22 163.007 3054 193.539V313H-7.99976V132.59C246.7 123.883 627.911 48.2285 807.6 77.8324C967.234 104.132 1297.41 195.666 1417.2 195.666C1697.09 195.666 1422.24 212.357 2042.48 159.419Z" fill="#2C64C6" fill-opacity="0.74"/>
</svg>
