<svg width="649" height="210" viewBox="0 0 649 210" fill="none" xmlns="http://www.w3.org/2000/svg">
<path d="M350.247 18.4485C348.743 18.4507 346.673 17.7231 344.909 17.5738C337.512 16.9445 334.793 16.3742 328.078 15.7177C325.6 15.4748 321.913 15.2272 317.739 14.9002C305.109 14.0386 288.093 11.6017 288.58 8.55936C288.58 8.55926 288.58 8.55916 288.58 8.55906C288.585 8.51962 288.593 8.48008 288.604 8.44043C288.803 7.68726 291.415 7.16733 291.896 6.34584C292.372 5.52213 292.805 -0.0995796 296.348 0.00133251C301.454 0.236276 313.598 2.69831 316.373 2.80559C317.057 2.83893 317.784 2.81316 318.579 2.77178C319.956 2.69647 321.473 2.56714 323.022 2.61023C330.807 2.82188 334.868 3.4404 341.996 2.51075C344.761 3.42775 347.527 4.34954 350.29 5.27847C353.99 5.19264 359.483 6.57406 361.716 6.69837C363.547 6.79833 364.668 6.30587 366.578 6.43655C368.723 6.58069 371.954 7.48341 375.854 7.75165C376.785 7.81616 377.607 7.84298 378.346 7.84209C382.674 7.84038 384.099 6.85499 387.399 7.04685C391.407 7.2802 397.494 8.84186 402.64 9.03214C403.297 8.95608 403.958 8.8818 404.621 8.80938C404.217 8.37016 403.812 7.93167 403.408 7.49391C406.003 7.68618 406.983 8.61345 409.337 8.99031C412.092 9.4365 413.63 8.95003 415.481 9.26475C417.011 9.5263 418.961 10.4616 420.94 10.7841C423.807 11.2577 423.351 10.3148 424.915 10.4482C425.552 10.4719 436.996 12.3271 437.633 12.4912C442.494 13.5203 442.661 14.7553 446.481 15.7456C449.858 16.6266 453.283 17.4238 456.707 18.1815C463.91 19.7708 471.171 21.0451 477.854 22.4815C482.24 23.4235 486.764 24.6444 491.056 25.9497C483.49 27.0539 497.999 33.2158 493.53 27.249C498.186 29.1516 501.929 28.8526 506.451 30.3134C509.371 31.2624 511.249 32.4503 515.466 33.648C522.949 35.7537 531.709 36.6426 532.812 40.518C541.764 42.862 548.73 47.0139 553.12 45.8443C553.507 45.989 553.964 46.2251 554.461 46.5255C556.895 48.0078 560.471 51.1171 562.353 52.2591C564.534 53.4989 581.221 62.8574 583.934 64.4537C586.699 65.9776 591.448 68.6502 593.897 69.7523C596.917 71.1092 600.533 69.6673 603.794 75.7816C609.832 79.1533 611.871 80.5799 616.97 84.5834C617.887 85.3134 617.675 85.8095 618.246 86.2149C619.403 87.0361 621.586 88.1348 623.607 89.6329C626.973 92.1298 628.058 94.5748 628.797 92.9721C631.133 94.5867 633.413 96.286 635.636 98.1743C636.138 99.1625 636.572 100.112 637.012 101.109C638.32 102.064 639.611 103.097 640.861 104.243C639.297 104.182 640.513 106.181 641.819 108.069C643.126 109.907 644.577 111.818 644.394 109.531C644.94 111.042 645.388 112.694 645.607 114.433C646.006 118.509 646.298 122.597 646.445 126.706C643.7 126.3 647.303 138.357 648.637 137.324C648.667 137.95 648.692 138.573 648.712 139.204C648.101 144.712 648.768 149.861 646.637 156.911C644.11 163.903 643.491 163.163 641.359 164.506C640.914 165.279 640.408 166.039 639.839 166.763C639.394 167.343 638.935 167.944 638.463 168.551C635.389 176.928 632.621 172.377 622.594 182.124C617.697 182.644 608.665 188.21 602.179 191.276C601.437 191.639 601.577 192.044 600.568 192.557C598.181 193.804 591.477 195.453 592.139 196.673C589.706 197.042 587.368 197.347 584.991 197.64C583.228 198.428 581.418 199.212 579.642 199.971C579.768 200.383 579.894 200.795 580.02 201.207C577.948 201.049 575.663 201.431 573.321 201.953C570.894 202.495 568.544 203.121 566.946 203.285C566.335 203.344 566.074 202.803 564.185 203.017C561.976 203.274 557.908 204.119 555.278 204.258C554.37 205.039 553.393 205.818 552.463 206.583C547.814 207.441 545.952 205.815 543.271 205.875C542.765 205.919 533.842 206.508 533.356 206.537C529.462 206.957 530.545 208.479 519.194 208.341C517.15 208.309 515.529 207.809 513.698 207.799C510.5 207.793 500.663 208.909 499.976 209.968C496.018 208.602 485.614 208.988 482.548 208.53C481.623 208.392 481.456 207.534 478.552 207.289C476.315 207.093 470.271 207.629 467.384 207.434C464.223 207.223 463.18 206.473 461.795 206.382C460.488 206.296 459.255 206.84 457.423 206.78C457.293 206.776 457.164 206.771 457.034 206.765C451.715 206.542 446.78 205.542 442.451 205.448C436.107 205.309 430.458 206.968 425.09 207.692C423.732 207.571 422.488 207.194 421.097 207.184C403.907 207.038 384.55 206.839 367.256 206.629C359.267 206.528 339.295 204.413 344.661 208.246C341.887 208.956 321.61 207.61 317.755 207.625C313.901 207.642 310.853 208.37 307.825 208.41C298.677 208.527 292.243 208.083 281.106 208.76C278.228 208.936 275.169 209.777 273.451 209.775C271.393 209.771 269.18 208.98 266.533 208.936C260.168 208.844 248.389 209.101 242.28 208.927C241.167 208.894 240.78 208.191 239.197 207.962C233.025 207.07 226.088 207.061 227.296 209.316C219.32 207.951 212.027 208.983 204.612 208.867C193.147 208.695 174.652 207.761 160.291 206.786C155.109 206.444 150.563 206.211 147.007 206.16C138.422 206.024 138.593 207.061 126.159 205.079C123.32 204.629 120.674 204.126 117.269 203.573C109.407 202.288 102.364 199.703 96.0762 201.25C87.3238 199.685 80.2498 199.182 73.9343 196.253C73.0898 196.584 72.272 196.916 71.3916 197.235C70.2745 197.061 69.2448 196.895 68.1064 196.702C67.8392 196.209 67.5772 195.716 67.3204 195.224C59.6395 193.725 49.0097 192.976 42.1078 189.496C40.9519 188.932 39.5897 188.208 38.1514 187.332C26.0859 180.65 8.26296 161.766 4.95023 151.247C2.70778 145.465 1.85272 145.213 2.79039 141.286C2.3391 139.96 1.95077 138.606 1.63187 137.224C1.09711 136.402 0.586409 135.544 0.104292 134.65C-0.656352 126.129 2.93564 116.454 6.85159 110.059C13.6838 97.6454 28.7858 84.7256 40.2694 78.9286C43.1451 77.427 46.8642 76.3425 49.7329 74.8195C53.864 72.6518 53.8874 71.0067 59.2145 68.4471C67.983 64.1419 85.9213 58.9486 94.3696 55.9952C96.9214 55.0759 97.9798 54.1553 99.7921 53.4917C107.476 50.6934 113.226 48.9751 120.638 45.9559C128.6 45.1116 128.499 47.0271 131.375 48.0977C133.557 48.9029 140.121 50.4179 141.261 51.3569C142.051 52.0151 140.165 53.6221 141.208 54.3008C131.752 57.5653 128.212 57.7321 120.157 58.7453C106.452 62.8637 92.7367 67.4999 79.6515 72.8099C78.3494 72.7909 76.8007 72.8797 75.3987 72.9184C75.3983 72.9174 75.3979 72.9164 75.3975 72.9154C69.9664 74.5586 68.5823 76.6212 66.0071 78.1171C53.976 85.333 34.8008 94.8436 21.7635 109.839C7.50343 124.512 11.9155 145.695 21.8724 156.846C25.0193 161.682 39.2822 173.215 44.61 176.504C45.0804 176.843 45.4778 177.135 45.7678 177.376C46.6028 178.069 46.5335 178.906 47.5883 179.448C57.4143 183.462 68.8385 184.774 80.0655 186.004C103.053 190.433 127.687 191.419 151.341 193.263C154.767 193.524 157.914 193.759 161.341 194.014C221.755 197.781 282.51 195.443 342.655 195.187C354.926 195.091 370.499 194.352 382.53 194.648C387.512 194.772 389.681 196.003 396.219 195.049C396.289 195.385 396.359 195.72 396.429 196.055C402.234 195.631 405.857 194.86 412.338 194.791C417.787 194.723 432.131 194.77 436.995 194.981C439.485 195.08 438.551 195.693 440.849 195.727C444.528 195.774 452.007 195.204 457.391 195.252C457.913 195.256 458.414 195.265 458.891 195.28C463.865 195.434 472.098 196.378 475.975 196.361C489.665 196.308 504.566 195.477 519.074 195.59C523.077 195.627 528.214 196.308 529.471 196.242C531.922 196.117 532.602 195.299 534.236 195.13C542.482 194.32 555.271 194.214 562.875 192.566C565.364 192.069 567.842 191.477 570.384 190.809C593.337 184.336 618.768 177.523 632.092 160.165C632.119 160.134 632.146 160.102 632.174 160.07C637.999 153.742 636.161 131.299 633.381 116.818C633.066 114.722 631.465 111.969 629.856 109.789C628.089 107.464 629.234 107.481 627.435 105.588C625.372 103.501 623.763 102.887 622.708 102.019C615.481 95.7308 596.506 84.4755 588.501 79.4283C586.993 78.442 586.164 77.2042 585.227 76.6874C584.753 76.425 583.431 76.2214 581.905 75.4439C569.62 69.218 560.352 64.4205 548.692 58.6968C547.587 58.1554 546.394 57.6009 545.177 57.0613C519.488 46.1224 486.445 39.4732 457.283 31.5784C455.967 31.2271 454.725 30.8388 453.621 30.4536C449.401 28.9808 446.688 27.4769 445.981 27.3188C444.011 26.8808 442.541 27.4535 438.514 26.7741C425.133 24.4536 407.37 20.3457 394.499 19.258C389.488 18.7997 382.931 18.8398 377.298 18.7372C375.795 18.7086 374.36 18.6681 373.038 18.6015C368.026 18.3284 356.216 16.9577 353.948 17.309C352.573 17.5135 351.874 18.4409 350.247 18.4485ZM519.748 35.6878C518.425 36.9023 527.98 38.4714 524.778 36.6133C524.066 36.1912 520.085 35.362 519.748 35.6878ZM398.089 204.438C398.178 204.883 398.267 205.328 398.355 205.773C399.606 205.584 400.851 205.395 402.092 205.208C401.394 204.941 400.694 204.675 399.993 204.409C399.359 204.418 398.725 204.428 398.089 204.438Z" fill="#FFBD00"/>
</svg>
