<svg width="2734" height="313" viewBox="0 0 2734 313" fill="none" xmlns="http://www.w3.org/2000/svg">
<path d="M1941.5 92.2386C1354.7 -11.4151 402.667 -7.04838 0 8.0917V294H2739V69.2894C2551 148.847 2129 117.738 1941.5 92.2386Z" fill="#0035B1" fill-opacity="0.88"/>
<path d="M1432 118.754C845.2 35.0174 402.667 136.566 0 148.797V313H2739V0C2311 241.482 1619.5 139.354 1432 118.754Z" fill="#A9BEE8"/>
<path d="M903.5 159.201C500.5 130.253 293.667 162.795 0 193.37V313H2735V132.335C2507.5 123.616 2167 47.8543 2006.5 77.5C1863.91 103.837 1569 195.5 1462 195.5C1212 195.5 1457.5 212.215 903.5 159.201Z" fill="#2C64C6" fill-opacity="0.74"/>
</svg>
